<svg width="414" height="308" viewBox="0 0 414 308" fill="none" xmlns="http://www.w3.org/2000/svg">
<g filter="url(#filter0_d_1021_1310)">
<ellipse cx="39" cy="337.5" rx="185" ry="184.5" fill="url(#paint0_linear_1021_1310)"/>
</g>
<rect x="60" y="131" width="3.5469" height="4.70646" rx="1.77345" fill="#EE4B63"/>
<rect x="60" y="200.775" width="3.5469" height="4.70646" rx="1.77345" fill="#EE4B63"/>
<rect x="60" y="154.258" width="3.5469" height="4.70646" rx="1.77345" fill="#EE4B63"/>
<rect x="60" y="224.035" width="3.5469" height="4.70646" rx="1.77345" fill="#EE4B63"/>
<rect x="60" y="177.518" width="3.5469" height="4.70646" rx="1.77345" fill="#EE4B63"/>
<rect x="60" y="247.293" width="3.5469" height="4.70646" rx="1.77345" fill="#EE4B63"/>
<rect x="131.227" y="131" width="3.5469" height="4.70646" rx="1.77345" fill="#EE4B63"/>
<rect x="131.227" y="200.775" width="3.5469" height="4.70646" rx="1.77345" fill="#EE4B63"/>
<rect x="131.227" y="154.258" width="3.5469" height="4.70646" rx="1.77345" fill="#EE4B63"/>
<rect x="131.227" y="224.035" width="3.5469" height="4.70646" rx="1.77345" fill="#EE4B63"/>
<rect x="131.227" y="177.518" width="3.5469" height="4.70646" rx="1.77345" fill="#EE4B63"/>
<rect x="131.227" y="247.293" width="3.5469" height="4.70646" rx="1.77345" fill="#EE4B63"/>
<rect x="83.7422" y="131" width="3.5469" height="4.70646" rx="1.77345" fill="#EE4B63"/>
<rect x="83.7422" y="200.775" width="3.5469" height="4.70646" rx="1.77345" fill="#EE4B63"/>
<rect x="83.7422" y="154.258" width="3.5469" height="4.70646" rx="1.77345" fill="#EE4B63"/>
<rect x="83.7422" y="224.035" width="3.5469" height="4.70646" rx="1.77345" fill="#EE4B63"/>
<rect x="83.7422" y="177.518" width="3.5469" height="4.70646" rx="1.77345" fill="#EE4B63"/>
<rect x="83.7422" y="247.293" width="3.5469" height="4.70646" rx="1.77345" fill="#EE4B63"/>
<rect x="154.969" y="131" width="3.5469" height="4.70646" rx="1.77345" fill="#EE4B63"/>
<rect x="154.969" y="200.775" width="3.5469" height="4.70646" rx="1.77345" fill="#EE4B63"/>
<rect x="154.969" y="154.258" width="3.5469" height="4.70646" rx="1.77345" fill="#EE4B63"/>
<rect x="154.969" y="224.035" width="3.5469" height="4.70646" rx="1.77345" fill="#EE4B63"/>
<rect x="154.969" y="177.518" width="3.5469" height="4.70646" rx="1.77345" fill="#EE4B63"/>
<rect x="154.969" y="247.293" width="3.5469" height="4.70646" rx="1.77345" fill="#EE4B63"/>
<rect x="202.453" y="131" width="3.5469" height="4.70646" rx="1.77345" fill="#EE4B63"/>
<rect x="202.453" y="200.775" width="3.5469" height="4.70646" rx="1.77345" fill="#EE4B63"/>
<rect x="202.453" y="154.258" width="3.5469" height="4.70646" rx="1.77345" fill="#EE4B63"/>
<rect x="202.453" y="224.035" width="3.5469" height="4.70646" rx="1.77345" fill="#EE4B63"/>
<rect x="202.453" y="177.518" width="3.5469" height="4.70646" rx="1.77345" fill="#EE4B63"/>
<rect x="202.453" y="247.293" width="3.5469" height="4.70646" rx="1.77345" fill="#EE4B63"/>
<rect x="107.484" y="131" width="3.5469" height="4.70646" rx="1.77345" fill="#EE4B63"/>
<rect x="107.484" y="200.775" width="3.5469" height="4.70646" rx="1.77345" fill="#EE4B63"/>
<rect x="107.484" y="154.258" width="3.5469" height="4.70646" rx="1.77345" fill="#EE4B63"/>
<rect x="107.484" y="224.035" width="3.5469" height="4.70646" rx="1.77345" fill="#EE4B63"/>
<rect x="107.484" y="177.518" width="3.5469" height="4.70646" rx="1.77345" fill="#EE4B63"/>
<rect x="107.484" y="247.293" width="3.5469" height="4.70646" rx="1.77345" fill="#EE4B63"/>
<rect x="178.711" y="131" width="3.5469" height="4.70646" rx="1.77345" fill="#EE4B63"/>
<rect x="178.711" y="200.775" width="3.5469" height="4.70646" rx="1.77345" fill="#EE4B63"/>
<rect x="178.711" y="154.258" width="3.5469" height="4.70646" rx="1.77345" fill="#EE4B63"/>
<rect x="178.711" y="224.035" width="3.5469" height="4.70646" rx="1.77345" fill="#EE4B63"/>
<rect x="178.711" y="177.518" width="3.5469" height="4.70646" rx="1.77345" fill="#EE4B63"/>
<rect x="178.711" y="247.293" width="3.5469" height="4.70646" rx="1.77345" fill="#EE4B63"/>
<defs>
<filter id="filter0_d_1021_1310" x="-294" y="0" width="708" height="707" filterUnits="userSpaceOnUse" color-interpolation-filters="sRGB">
<feFlood flood-opacity="0" result="BackgroundImageFix"/>
<feColorMatrix in="SourceAlpha" type="matrix" values="0 0 0 0 0 0 0 0 0 0 0 0 0 0 0 0 0 0 127 0" result="hardAlpha"/>
<feMorphology radius="52" operator="dilate" in="SourceAlpha" result="effect1_dropShadow_1021_1310"/>
<feOffset dx="21" dy="16"/>
<feGaussianBlur stdDeviation="58.5"/>
<feComposite in2="hardAlpha" operator="out"/>
<feColorMatrix type="matrix" values="0 0 0 0 0.549351 0 0 0 0 0.870833 0 0 0 0 0.774388 0 0 0 0.17 0"/>
<feBlend mode="normal" in2="BackgroundImageFix" result="effect1_dropShadow_1021_1310"/>
<feBlend mode="normal" in="SourceGraphic" in2="effect1_dropShadow_1021_1310" result="shape"/>
</filter>
<linearGradient id="paint0_linear_1021_1310" x1="39" y1="153" x2="39" y2="522" gradientUnits="userSpaceOnUse">
<stop stop-color="#F7FFFF"/>
<stop offset="1" stop-color="#DAEFEF"/>
</linearGradient>
</defs>
</svg>
