<svg width="14" height="14" viewBox="0 0 14 14" fill="none" xmlns="http://www.w3.org/2000/svg">
<path d="M6.99156 1.17188C3.77156 1.17188 1.16406 3.78521 1.16406 7.00521C1.16406 10.2252 3.77156 12.8385 6.99156 12.8385C10.2174 12.8385 12.8307 10.2252 12.8307 7.00521C12.8307 3.78521 10.2174 1.17188 6.99156 1.17188ZM6.9974 11.6719C4.41906 11.6719 2.33073 9.58354 2.33073 7.00521C2.33073 4.42688 4.41906 2.33854 6.9974 2.33854C9.57573 2.33854 11.6641 4.42688 11.6641 7.00521C11.6641 9.58354 9.57573 11.6719 6.9974 11.6719Z" fill="#6A7187"/>
<path d="M7.28906 4.07812H6.41406V7.57813L9.47656 9.41563L9.91406 8.69813L7.28906 7.14063V4.07812Z" fill="#74788D"/>
</svg>
