<svg width="36" height="36" viewBox="0 0 36 36" fill="none" xmlns="http://www.w3.org/2000/svg">
<path d="M7.61523e-05 18.0523C-0.0102836 14.4901 1.03659 11.0048 3.00814 8.03786C4.9797 5.0709 7.78728 2.75565 11.0754 1.38525C14.3636 0.0148402 17.9844 -0.349097 21.4795 0.339514C24.9746 1.02812 28.1868 2.73831 30.7094 5.25356C33.2319 7.76881 34.9515 10.976 35.6503 14.4691C36.349 17.9622 35.9957 21.584 34.6348 24.8761C33.274 28.1683 30.9669 30.9826 28.0057 32.9628C25.0445 34.943 21.5623 36 18.0001 36C15.6397 36.0034 13.3018 35.5419 11.1198 34.6418C8.93779 33.7417 6.95444 32.4207 5.28299 30.7541C3.61153 29.0875 2.28471 27.108 1.37826 24.9286C0.471819 22.7493 0.00351082 20.4127 7.61523e-05 18.0523Z" fill="#FEEDDA"/>
<path d="M29.4152 3.64229L25.1875 1L7.35203 29.5368L11.5797 32.1791L29.4152 3.64229Z" fill="white" fill-opacity="0.1"/>
<path d="M18.0013 18.0026C18.5055 18.0026 18.9372 17.8229 19.2966 17.4636C19.6559 17.1043 19.8352 16.6728 19.8346 16.1693C19.8346 15.6651 19.655 15.2334 19.2956 14.874C18.9363 14.5147 18.5049 14.3353 18.0013 14.3359C17.4971 14.3359 17.0654 14.5156 16.7061 14.8749C16.3467 15.2343 16.1674 15.6657 16.168 16.1693C16.168 16.6734 16.3476 17.1052 16.707 17.4645C17.0663 17.8239 17.4977 18.0032 18.0013 18.0026ZM18.0013 24.7401C19.8652 23.029 21.2478 21.4743 22.1492 20.0761C23.0506 18.6779 23.5013 17.4367 23.5013 16.3526C23.5013 14.6873 22.9702 13.3239 21.9081 12.2624C20.846 11.2009 19.5437 10.6699 18.0013 10.6693C16.4582 10.6693 15.1557 11.2003 14.0936 12.2624C13.0314 13.3245 12.5007 14.6879 12.5013 16.3526C12.5013 17.4373 12.952 18.6788 13.8534 20.077C14.7548 21.4752 16.1374 23.0296 18.0013 24.7401ZM18.0013 27.1693C15.5416 25.0762 13.7046 23.1323 12.4903 21.3374C11.276 19.5426 10.6686 17.881 10.668 16.3526C10.668 14.0609 11.4053 12.2352 12.8799 10.8755C14.3545 9.5158 16.0616 8.83594 18.0013 8.83594C19.9416 8.83594 21.649 9.5158 23.1236 10.8755C24.5982 12.2352 25.3352 14.0609 25.3346 16.3526C25.3346 17.8804 24.7272 19.542 23.5123 21.3374C22.2974 23.1329 20.4604 25.0768 18.0013 27.1693Z" fill="#F8941F"/>
</svg>
