<svg width="36" height="36" viewBox="0 0 36 36" fill="none" xmlns="http://www.w3.org/2000/svg">
<path d="M7.61523e-05 17.9947C-0.0102836 14.5671 1.03659 11.2137 3.00814 8.35891C4.9797 5.50415 7.78728 3.27645 11.0754 1.95786C14.3636 0.639279 17.9844 0.289104 21.4795 0.951675C24.9746 1.61425 28.1868 3.25977 30.7094 5.6799C33.232 8.10003 34.9515 11.1859 35.6503 14.5469C36.3491 17.9079 35.9957 21.3928 34.6349 24.5605C33.274 27.7281 30.967 30.436 28.0058 32.3413C25.0445 34.2466 21.5624 35.2636 18.0001 35.2636C15.6397 35.2669 13.3018 34.8229 11.1198 33.9568C8.93779 33.0908 6.95444 31.8197 5.28299 30.2161C3.61153 28.6126 2.28471 26.7079 1.37826 24.611C0.471819 22.514 0.00351082 20.2658 7.61523e-05 17.9947Z" fill="#E0E5FA"/>
<path d="M30.4951 3.05085L25.4219 0L4.0193 32.9492L9.09251 36L30.4951 3.05085Z" fill="white" fill-opacity="0.1"/>
<path d="M23.8333 22.375C24.7042 22.375 25.4167 21.6438 25.4167 20.75V12.625C25.4167 11.7312 24.7042 11 23.8333 11H11.1667C10.2958 11 9.58333 11.7312 9.58333 12.625V20.75C9.58333 21.6438 10.2958 22.375 11.1667 22.375H8V24H27V22.375H23.8333ZM11.1667 12.625H23.8333V20.75H11.1667V12.625Z" fill="#4664E4"/>
</svg>
