<svg width="36" height="36" viewBox="0 0 36 36" fill="none" xmlns="http://www.w3.org/2000/svg">
<path d="M7.61523e-05 18.0523C-0.0102836 14.4901 1.03659 11.0048 3.00814 8.03786C4.9797 5.0709 7.78728 2.75565 11.0754 1.38525C14.3636 0.0148402 17.9844 -0.349097 21.4795 0.339514C24.9746 1.02812 28.1868 2.73831 30.7094 5.25356C33.232 7.76881 34.9515 10.976 35.6503 14.4691C36.3491 17.9622 35.9957 21.584 34.6349 24.8761C33.274 28.1683 30.967 30.9826 28.0058 32.9628C25.0445 34.943 21.5624 36 18.0001 36C15.6397 36.0034 13.3018 35.5419 11.1198 34.6418C8.93779 33.7417 6.95444 32.4207 5.28299 30.7541C3.61153 29.0875 2.28471 27.108 1.37826 24.9286C0.471819 22.7493 0.00351082 20.4127 7.61523e-05 18.0523Z" fill="#DAF4EF"/>
<path d="M26.9231 6.19763L22.918 3.78906L6.0212 29.8016L10.0264 32.2101L26.9231 6.19763Z" fill="white" fill-opacity="0.1"/>
<path d="M22.5117 16.6783C23 16.19 23 15.405 23 13.8333C23 12.2617 23 11.4767 22.5117 10.9883M22.5117 16.6783C22.0233 17.1667 21.2383 17.1667 19.6667 17.1667H16.3333C14.7617 17.1667 13.9767 17.1667 13.4883 16.6783M22.5117 10.9883C22.0233 10.5 21.2383 10.5 19.6667 10.5H16.3333C14.7617 10.5 13.9767 10.5 13.4883 10.9883M13.4883 10.9883C13 11.4767 13 12.2617 13 13.8333C13 15.405 13 16.19 13.4883 16.6783M18.8333 13.8333C18.8333 14.0543 18.7455 14.2663 18.5893 14.4226C18.433 14.5789 18.221 14.6667 18 14.6667C17.779 14.6667 17.567 14.5789 17.4107 14.4226C17.2545 14.2663 17.1667 14.0543 17.1667 13.8333C17.1667 13.6123 17.2545 13.4004 17.4107 13.2441C17.567 13.0878 17.779 13 18 13C18.221 13 18.433 13.0878 18.5893 13.2441C18.7455 13.4004 18.8333 13.6123 18.8333 13.8333Z" stroke="#1AB69D" stroke-width="1.5"/>
<path d="M23.0013 13C22.3383 13 21.7024 12.7366 21.2335 12.2678C20.7647 11.7989 20.5013 11.163 20.5013 10.5M23.0013 14.6667C22.3383 14.6667 21.7024 14.9301 21.2335 15.3989C20.7647 15.8677 20.5013 16.5036 20.5013 17.1667M13.0013 13C13.6643 13 14.3002 12.7366 14.7691 12.2678C15.2379 11.7989 15.5013 11.163 15.5013 10.5M13.0013 14.6667C13.6643 14.6667 14.3002 14.9301 14.7691 15.3989C15.2379 15.8677 15.5013 16.5036 15.5013 17.1667M12.168 24.99H14.0513C14.893 24.99 15.7455 25.0783 16.5646 25.2467C18.0271 25.5471 19.5319 25.5804 21.0063 25.345C21.7296 25.2283 22.4396 25.0492 23.083 24.7392C23.663 24.4583 24.3738 24.0642 24.8513 23.6217C25.328 23.18 25.8246 22.4575 26.1763 21.8925C26.4796 21.4075 26.333 20.8133 25.8546 20.4525C25.5858 20.257 25.262 20.1517 24.9296 20.1517C24.5973 20.1517 24.2734 20.257 24.0046 20.4525L22.4988 21.59C21.9155 22.0317 21.278 22.4375 20.5188 22.5583C20.4271 22.5725 20.3313 22.5858 20.2313 22.5975M20.2313 22.5975C20.2008 22.601 20.1702 22.6044 20.1396 22.6075M20.2313 22.5975C20.3647 22.5614 20.487 22.4927 20.5871 22.3975C20.7127 22.2889 20.8153 22.1562 20.8887 22.0073C20.9622 21.8584 21.0051 21.6962 21.0148 21.5305C21.0246 21.3647 21.0011 21.1987 20.9457 21.0422C20.8903 20.8857 20.8041 20.7418 20.6921 20.6192C20.5835 20.4986 20.4571 20.3955 20.3171 20.3133C17.9863 18.9225 14.3588 19.9817 12.168 21.5358M20.2313 22.5975C20.2012 22.6041 20.1705 22.6074 20.1396 22.6075M20.1396 22.6075C19.6371 22.658 19.1308 22.6591 18.628 22.6108" stroke="#1AB69D" stroke-width="1.5" stroke-linecap="round"/>
<path d="M12.168 20.9141C12.168 20.2237 11.6083 19.6641 10.918 19.6641C10.2276 19.6641 9.66797 20.2237 9.66797 20.9141V25.0807C9.66797 25.7711 10.2276 26.3307 10.918 26.3307C11.6083 26.3307 12.168 25.7711 12.168 25.0807V20.9141Z" stroke="#1AB69D" stroke-width="1.5"/>
</svg>
