<svg width="49" height="51" viewBox="0 0 49 51" fill="none" xmlns="http://www.w3.org/2000/svg">
<path d="M0.000101833 25.14C-0.0137515 20.3765 1.38615 15.7159 4.02256 11.7484C6.65897 7.78093 10.4133 4.68492 14.8103 2.85238C19.2073 1.01984 24.0491 0.53318 28.7229 1.45401C33.3966 2.37483 37.692 4.66174 41.0653 8.02518C44.4385 11.3886 46.7379 15.6774 47.6724 20.3484C48.6068 25.0194 48.1342 29.8627 46.3145 34.265C44.4948 38.6673 41.4097 42.4306 37.4499 45.0786C33.4901 47.7265 28.8337 49.14 24.0701 49.14C20.9138 49.1446 17.7875 48.5275 14.8696 47.3239C11.9518 46.1202 9.29964 44.3537 7.06453 42.1251C4.82942 39.8965 3.05516 37.2495 1.84304 34.3351C0.630927 31.4208 0.00469475 28.2963 0.000101833 25.14Z" fill="#DAF4EF"/>
<path d="M40.784 4.38062L34 0.140625L5.38 45.9326L12.164 50.1726L40.784 4.38062Z" fill="white" fill-opacity="0.1"/>
<path d="M26 21.9V20.2C26.55 19.9667 27.1127 19.7917 27.688 19.675C28.2633 19.5583 28.8673 19.5 29.5 19.5C29.9333 19.5 30.3583 19.5333 30.775 19.6C31.1917 19.6667 31.6 19.75 32 19.85V21.45C31.6 21.3 31.1957 21.1873 30.787 21.112C30.3783 21.0367 29.9493 20.9993 29.5 21C28.8667 21 28.2583 21.0793 27.675 21.238C27.0917 21.3967 26.5333 21.6173 26 21.9ZM26 27.4V25.7C26.55 25.4667 27.1127 25.2917 27.688 25.175C28.2633 25.0583 28.8673 25 29.5 25C29.9333 25 30.3583 25.0333 30.775 25.1C31.1917 25.1667 31.6 25.25 32 25.35V26.95C31.6 26.8 31.1957 26.6873 30.787 26.612C30.3783 26.5367 29.9493 26.4993 29.5 26.5C28.8667 26.5 28.2583 26.575 27.675 26.725C27.0917 26.875 26.5333 27.1 26 27.4ZM26 24.65V22.95C26.55 22.7167 27.1127 22.5417 27.688 22.425C28.2633 22.3083 28.8673 22.25 29.5 22.25C29.9333 22.25 30.3583 22.2833 30.775 22.35C31.1917 22.4167 31.6 22.5 32 22.6V24.2C31.6 24.05 31.1957 23.9373 30.787 23.862C30.3783 23.7867 29.9493 23.7493 29.5 23.75C28.8667 23.75 28.2583 23.8293 27.675 23.988C27.0917 24.1467 26.5333 24.3673 26 24.65ZM18.5 28C19.2833 28 20.046 28.0877 20.788 28.263C21.53 28.4383 22.2673 28.7007 23 29.05V19.2C22.3167 18.8 21.5917 18.5 20.825 18.3C20.0583 18.1 19.2833 18 18.5 18C17.9 18 17.304 18.0583 16.712 18.175C16.12 18.2917 15.5493 18.4667 15 18.7V28.6C15.5833 28.4 16.1627 28.25 16.738 28.15C17.3133 28.05 17.9007 28 18.5 28ZM25 29.05C25.7333 28.7 26.4707 28.4373 27.212 28.262C27.9533 28.0867 28.716 27.9993 29.5 28C30.1 28 30.6877 28.05 31.263 28.15C31.8383 28.25 32.4173 28.4 33 28.6V18.7C32.45 18.4667 31.879 18.2917 31.287 18.175C30.695 18.0583 30.0993 18 29.5 18C28.7167 18 27.9417 18.1 27.175 18.3C26.4083 18.5 25.6833 18.8 25 19.2V29.05ZM24 32C23.2 31.3667 22.3333 30.875 21.4 30.525C20.4667 30.175 19.5 30 18.5 30C17.6167 30 16.6917 30.1667 15.725 30.5C14.7583 30.8333 13.85 31.35 13 32.05V17.55C13.7333 17.05 14.596 16.6667 15.588 16.4C16.58 16.1333 17.5507 16 18.5 16C19.4667 16 20.4127 16.125 21.338 16.375C22.2633 16.625 23.1507 17 24 17.5C24.85 17 25.7377 16.625 26.663 16.375C27.5883 16.125 28.534 16 29.5 16C30.45 16 31.421 16.1333 32.413 16.4C33.405 16.6667 34.2673 17.05 35 17.55V32.05C34.1667 31.35 33.2623 30.8333 32.287 30.5C31.3117 30.1667 30.3827 30 29.5 30C28.5 30 27.5333 30.175 26.6 30.525C25.6667 30.875 24.8 31.3667 24 32Z" fill="#1AB69D"/>
</svg>
