<svg width="49" height="49" viewBox="0 0 49 49" fill="none" xmlns="http://www.w3.org/2000/svg">
<path d="M0.000101833 24.14C-0.0137515 19.3765 1.38615 14.7159 4.02256 10.7484C6.65897 6.78093 10.4133 3.68492 14.8103 1.85238C19.2073 0.0198447 24.0491 -0.46682 28.7229 0.454006C33.3966 1.37483 37.692 3.66174 41.0653 7.02518C44.4385 10.3886 46.7379 14.6774 47.6724 19.3484C48.6068 24.0194 48.1342 28.8627 46.3145 33.265C44.4948 37.6673 41.4097 41.4306 37.4499 44.0786C33.4901 46.7265 28.8337 48.14 24.0701 48.14C20.9138 48.1446 17.7875 47.5275 14.8696 46.3239C11.9518 45.1202 9.29964 43.3537 7.06453 41.1251C4.82942 38.8965 3.05516 36.2495 1.84304 33.3351C0.630927 30.4208 0.00469475 27.2963 0.000101833 24.14Z" fill="#FCE1E5"/>
<path d="M20 19V17C20 16.4696 20.2107 15.9609 20.5858 15.5858C20.9609 15.2107 21.4696 15 22 15H26C26.5304 15 27.0391 15.2107 27.4142 15.5858C27.7893 15.9609 28 16.4696 28 17V19M24 24V24.01M15 21C15 20.4696 15.2107 19.9609 15.5858 19.5858C15.9609 19.2107 16.4696 19 17 19H31C31.5304 19 32.0391 19.2107 32.4142 19.5858C32.7893 19.9609 33 20.4696 33 21V30C33 30.5304 32.7893 31.0391 32.4142 31.4142C32.0391 31.7893 31.5304 32 31 32H17C16.4696 32 15.9609 31.7893 15.5858 31.4142C15.2107 31.0391 15 30.5304 15 30V21Z" stroke="#EE4A62" stroke-width="2" stroke-linecap="round" stroke-linejoin="round"/>
<path d="M15 25C17.7916 26.4067 20.874 27.1394 24 27.1394C27.126 27.1394 30.2084 26.4067 33 25" stroke="#EE4A62" stroke-width="2" stroke-linecap="round" stroke-linejoin="round"/>
</svg>
