<svg width="290" height="241" viewBox="0 0 290 241" fill="none" xmlns="http://www.w3.org/2000/svg">
<path fill-rule="evenodd" clip-rule="evenodd" d="M141.89 240.968C141.086 240.547 140.538 239.705 140.538 238.735C140.538 237.343 141.666 236.214 143.059 236.214H144.129C145.521 236.214 146.65 237.343 146.65 238.735C146.65 239.73 146.073 240.59 145.236 241C175.833 240.953 204.208 231.657 227.583 215.824C226.711 215.427 226.104 214.549 226.104 213.529C226.104 212.136 227.233 211.008 228.625 211.008H229.696C230.784 211.008 231.711 211.698 232.064 212.664C249.557 199.827 263.977 183.217 274.056 164.073C273.624 164.421 273.074 164.629 272.476 164.629H271.406C270.014 164.629 268.885 163.501 268.885 162.109C268.885 160.716 270.014 159.588 271.406 159.588H272.476C273.868 159.588 274.997 160.716 274.997 162.109C274.997 162.16 274.995 162.211 274.992 162.262C284.599 143.349 290 122.04 290 99.5002C290 77.1213 284.676 55.9558 275.198 37.144V37.1466C275.198 38.5387 274.069 39.6672 272.677 39.6672H271.607C270.214 39.6672 269.086 38.5387 269.086 37.1466C269.086 35.7546 270.214 34.626 271.607 34.626H272.677C273.225 34.626 273.732 34.8008 274.145 35.0976C264.107 15.9658 249.735 -0.642414 232.294 -13.4941C231.966 -12.4835 231.016 -11.7529 229.896 -11.7529H228.826C227.434 -11.7529 226.305 -12.8814 226.305 -14.2735C226.305 -15.335 226.961 -16.2432 227.89 -16.6147C204.397 -32.6155 175.822 -42 145 -42C144.802 -42 144.605 -41.9996 144.407 -41.9988C145.763 -41.9581 146.851 -40.8457 146.851 -39.4794C146.851 -38.0873 145.722 -36.9588 144.33 -36.9588H143.259C141.867 -36.9588 140.739 -38.0873 140.739 -39.4794C140.739 -40.7839 141.73 -41.857 143 -41.9868C112.38 -41.5828 84.0517 -31.9167 60.8241 -15.729C61.1154 -15.3179 61.2866 -14.8157 61.2866 -14.2735C61.2866 -12.8814 60.1581 -11.7529 58.766 -11.7529H57.6955C57.0985 -11.7529 56.5499 -11.9605 56.1181 -12.3074C39.533 0.266376 25.8201 16.2769 16.1019 34.6287C17.4399 34.6896 18.506 35.7936 18.506 37.1466C18.506 38.5387 17.3775 39.6672 15.9854 39.6672H14.9148C14.4784 39.6672 14.0678 39.5563 13.7098 39.361C4.91548 57.6126 0 77.9962 0 99.5002C0 121.055 4.93893 141.485 13.7727 159.77C14.0635 159.652 14.3813 159.588 14.7141 159.588H15.7846C17.1767 159.588 18.3052 160.716 18.3052 162.109C18.3052 163.353 17.404 164.386 16.2188 164.592C25.9454 182.881 39.6429 198.835 56.1968 211.367C56.5759 211.139 57.02 211.008 57.4947 211.008H58.5652C59.9573 211.008 61.0858 212.136 61.0858 213.529C61.0858 213.955 60.9801 214.356 60.7934 214.708C83.7458 230.713 111.682 240.348 141.89 240.968ZM12.1935 110.689C12.1935 109.296 13.322 108.168 14.7141 108.168H15.7846C17.1767 108.168 18.3052 109.296 18.3052 110.689C18.3052 112.081 17.1767 113.209 15.7846 113.209H14.7141C13.322 113.209 12.1935 112.081 12.1935 110.689ZM12.1935 135.894C12.1935 134.502 13.322 133.374 14.7141 133.374H15.7846C17.1767 133.374 18.3052 134.502 18.3052 135.894C18.3052 137.287 17.1767 138.415 15.7846 138.415H14.7141C13.322 138.415 12.1935 137.287 12.1935 135.894ZM140.538 110.688C140.538 109.296 141.666 108.168 143.059 108.168H144.129C145.521 108.168 146.65 109.296 146.65 110.688C146.65 112.081 145.521 113.209 144.129 113.209H143.059C141.666 113.209 140.538 112.081 140.538 110.688ZM143.059 184.794C141.666 184.794 140.538 185.922 140.538 187.315C140.538 188.707 141.666 189.835 143.059 189.835H144.129C145.521 189.835 146.65 188.707 146.65 187.315C146.65 185.922 145.521 184.794 144.129 184.794H143.059ZM140.538 135.894C140.538 134.502 141.666 133.374 143.059 133.374H144.129C145.521 133.374 146.65 134.502 146.65 135.894C146.65 137.287 145.521 138.415 144.129 138.415H143.059C141.666 138.415 140.538 137.287 140.538 135.894ZM143.059 211.008C141.666 211.008 140.538 212.136 140.538 213.529C140.538 214.921 141.666 216.049 143.059 216.049H144.129C145.521 216.049 146.65 214.921 146.65 213.529C146.65 212.136 145.521 211.008 144.129 211.008H143.059ZM140.538 162.109C140.538 160.716 141.666 159.588 143.059 159.588H144.129C145.521 159.588 146.65 160.716 146.65 162.109C146.65 163.501 145.521 164.629 144.129 164.629H143.059C141.666 164.629 140.538 163.501 140.538 162.109ZM54.9741 110.688C54.9741 109.296 56.1026 108.168 57.4947 108.168H58.5652C59.9573 108.168 61.0858 109.296 61.0858 110.688C61.0858 112.081 59.9573 113.209 58.5652 113.209H57.4947C56.1026 113.209 54.9741 112.081 54.9741 110.688ZM57.4947 184.794C56.1026 184.794 54.9741 185.922 54.9741 187.315C54.9741 188.707 56.1026 189.835 57.4947 189.835H58.5652C59.9573 189.835 61.0858 188.707 61.0858 187.315C61.0858 185.922 59.9573 184.794 58.5652 184.794H57.4947ZM54.9741 135.894C54.9741 134.502 56.1026 133.374 57.4947 133.374H58.5652C59.9573 133.374 61.0858 134.502 61.0858 135.894C61.0858 137.287 59.9573 138.415 58.5652 138.415H57.4947C56.1026 138.415 54.9741 137.287 54.9741 135.894ZM54.9741 162.109C54.9741 160.716 56.1026 159.588 57.4947 159.588H58.5652C59.9573 159.588 61.0858 160.716 61.0858 162.109C61.0858 163.501 59.9573 164.629 58.5652 164.629H57.4947C56.1026 164.629 54.9741 163.501 54.9741 162.109ZM183.324 110.688C183.324 109.296 184.452 108.168 185.844 108.168H186.915C188.307 108.168 189.436 109.296 189.436 110.688C189.436 112.081 188.307 113.209 186.915 113.209H185.844C184.452 113.209 183.324 112.081 183.324 110.688ZM185.844 184.794C184.452 184.794 183.324 185.922 183.324 187.315C183.324 188.707 184.452 189.835 185.844 189.835H186.915C188.307 189.835 189.436 188.707 189.436 187.315C189.436 185.922 188.307 184.794 186.915 184.794H185.844ZM183.324 135.894C183.324 134.502 184.452 133.374 185.844 133.374H186.915C188.307 133.374 189.436 134.502 189.436 135.894C189.436 137.287 188.307 138.415 186.915 138.415H185.844C184.452 138.415 183.324 137.287 183.324 135.894ZM185.844 211.008C184.452 211.008 183.324 212.136 183.324 213.529C183.324 214.921 184.452 216.049 185.844 216.049H186.915C188.307 216.049 189.436 214.921 189.436 213.529C189.436 212.136 188.307 211.008 186.915 211.008H185.844ZM183.324 162.109C183.324 160.716 184.452 159.588 185.844 159.588H186.915C188.307 159.588 189.436 160.716 189.436 162.109C189.436 163.501 188.307 164.629 186.915 164.629H185.844C184.452 164.629 183.324 163.501 183.324 162.109ZM268.885 110.688C268.885 109.296 270.014 108.168 271.406 108.168H272.476C273.868 108.168 274.997 109.296 274.997 110.688C274.997 112.081 273.868 113.209 272.476 113.209H271.406C270.014 113.209 268.885 112.081 268.885 110.688ZM268.885 135.894C268.885 134.502 270.014 133.374 271.406 133.374H272.476C273.868 133.374 274.997 134.502 274.997 135.894C274.997 137.287 273.868 138.415 272.476 138.415H271.406C270.014 138.415 268.885 137.287 268.885 135.894ZM97.7599 110.688C97.7599 109.296 98.8885 108.168 100.281 108.168H101.351C102.743 108.168 103.872 109.296 103.872 110.688C103.872 112.081 102.743 113.209 101.351 113.209H100.281C98.8885 113.209 97.7599 112.081 97.7599 110.688ZM100.281 184.794C98.8885 184.794 97.7599 185.922 97.7599 187.315C97.7599 188.707 98.8885 189.835 100.281 189.835H101.351C102.743 189.835 103.872 188.707 103.872 187.315C103.872 185.922 102.743 184.794 101.351 184.794H100.281ZM97.7599 135.894C97.7599 134.502 98.8885 133.374 100.281 133.374H101.351C102.743 133.374 103.872 134.502 103.872 135.894C103.872 137.287 102.743 138.415 101.351 138.415H100.281C98.8885 138.415 97.7599 137.287 97.7599 135.894ZM100.281 211.008C98.8885 211.008 97.7599 212.136 97.7599 213.529C97.7599 214.921 98.8885 216.049 100.281 216.049H101.351C102.743 216.049 103.872 214.921 103.872 213.529C103.872 212.136 102.743 211.008 101.351 211.008H100.281ZM97.7599 162.109C97.7599 160.716 98.8885 159.588 100.281 159.588H101.351C102.743 159.588 103.872 160.716 103.872 162.109C103.872 163.501 102.743 164.629 101.351 164.629H100.281C98.8885 164.629 97.7599 163.501 97.7599 162.109ZM226.104 110.688C226.104 109.296 227.233 108.168 228.625 108.168H229.696C231.088 108.168 232.216 109.296 232.216 110.688C232.216 112.081 231.088 113.209 229.696 113.209H228.625C227.233 113.209 226.104 112.081 226.104 110.688ZM228.625 184.794C227.233 184.794 226.104 185.922 226.104 187.315C226.104 188.707 227.233 189.835 228.625 189.835H229.696C231.088 189.835 232.216 188.707 232.216 187.315C232.216 185.922 231.088 184.794 229.696 184.794H228.625ZM226.104 135.894C226.104 134.502 227.233 133.374 228.625 133.374H229.696C231.088 133.374 232.216 134.502 232.216 135.894C232.216 137.287 231.088 138.415 229.696 138.415H228.625C227.233 138.415 226.104 137.287 226.104 135.894ZM226.104 162.109C226.104 160.716 227.233 159.588 228.625 159.588H229.696C231.088 159.588 232.216 160.716 232.216 162.109C232.216 163.501 231.088 164.629 229.696 164.629H228.625C227.233 164.629 226.104 163.501 226.104 162.109ZM14.9148 60.8402C13.5228 60.8402 12.3943 61.9687 12.3943 63.3608C12.3943 64.7528 13.5228 65.8813 14.9148 65.8813H15.9854C17.3775 65.8813 18.506 64.7528 18.506 63.3608C18.506 61.9687 17.3775 60.8402 15.9854 60.8402H14.9148ZM14.9148 86.0461C13.5228 86.0461 12.3943 87.1746 12.3943 88.5667C12.3943 89.9588 13.5228 91.0873 14.9148 91.0873H15.9854C17.3775 91.0873 18.506 89.9588 18.506 88.5667C18.506 87.1746 17.3775 86.0461 15.9854 86.0461H14.9148ZM143.259 34.626C141.867 34.626 140.739 35.7546 140.739 37.1466C140.739 38.5387 141.867 39.6672 143.259 39.6672H144.33C145.722 39.6672 146.851 38.5387 146.851 37.1466C146.851 35.7546 145.722 34.626 144.33 34.626H143.259ZM140.739 -14.2735C140.739 -15.6656 141.867 -16.7941 143.259 -16.7941H144.33C145.722 -16.7941 146.851 -15.6656 146.851 -14.2735C146.851 -12.8814 145.722 -11.7529 144.33 -11.7529H143.259C141.867 -11.7529 140.739 -12.8814 140.739 -14.2735ZM143.259 60.8402C141.867 60.8402 140.739 61.9687 140.739 63.3608C140.739 64.7528 141.867 65.8813 143.259 65.8813H144.33C145.722 65.8813 146.851 64.7528 146.851 63.3608C146.851 61.9687 145.722 60.8402 144.33 60.8402H143.259ZM140.739 11.9407C140.739 10.5486 141.867 9.42012 143.259 9.42012H144.33C145.722 9.42012 146.851 10.5486 146.851 11.9407C146.851 13.3328 145.722 14.4613 144.33 14.4613H143.259C141.867 14.4613 140.739 13.3328 140.739 11.9407ZM143.259 86.0461C141.867 86.0461 140.739 87.1746 140.739 88.5667C140.739 89.9588 141.867 91.0873 143.259 91.0873H144.33C145.722 91.0873 146.851 89.9588 146.851 88.5667C146.851 87.1746 145.722 86.0461 144.33 86.0461H143.259ZM57.6955 34.626C56.3034 34.626 55.1749 35.7546 55.1749 37.1466C55.1749 38.5387 56.3034 39.6672 57.6955 39.6672H58.766C60.1581 39.6672 61.2866 38.5387 61.2866 37.1466C61.2866 35.7546 60.1581 34.626 58.766 34.626H57.6955ZM57.6955 60.8402C56.3034 60.8402 55.1749 61.9687 55.1749 63.3608C55.1749 64.7528 56.3034 65.8813 57.6955 65.8813H58.766C60.1581 65.8813 61.2866 64.7528 61.2866 63.3608C61.2866 61.9687 60.1581 60.8402 58.766 60.8402H57.6955ZM55.1749 11.9407C55.1749 10.5486 56.3034 9.42012 57.6955 9.42012H58.766C60.1581 9.42012 61.2866 10.5486 61.2866 11.9407C61.2866 13.3328 60.1581 14.4613 58.766 14.4613H57.6955C56.3034 14.4613 55.1749 13.3328 55.1749 11.9407ZM57.6955 86.0461C56.3034 86.0461 55.1749 87.1746 55.1749 88.5667C55.1749 89.9588 56.3034 91.0873 57.6955 91.0873H58.766C60.1581 91.0873 61.2866 89.9588 61.2866 88.5667C61.2866 87.1746 60.1581 86.0461 58.766 86.0461H57.6955ZM186.045 34.626C184.653 34.626 183.525 35.7546 183.525 37.1466C183.525 38.5387 184.653 39.6672 186.045 39.6672H187.116C188.508 39.6672 189.636 38.5387 189.636 37.1466C189.636 35.7546 188.508 34.626 187.116 34.626H186.045ZM183.525 -14.2735C183.525 -15.6656 184.653 -16.7941 186.045 -16.7941H187.116C188.508 -16.7941 189.636 -15.6656 189.636 -14.2735C189.636 -12.8814 188.508 -11.7529 187.116 -11.7529H186.045C184.653 -11.7529 183.525 -12.8814 183.525 -14.2735ZM186.045 60.8402C184.653 60.8402 183.525 61.9687 183.525 63.3608C183.525 64.7528 184.653 65.8813 186.045 65.8813H187.116C188.508 65.8813 189.636 64.7528 189.636 63.3608C189.636 61.9687 188.508 60.8402 187.116 60.8402H186.045ZM183.525 11.9407C183.525 10.5486 184.653 9.42012 186.045 9.42012H187.116C188.508 9.42012 189.636 10.5486 189.636 11.9407C189.636 13.3328 188.508 14.4613 187.116 14.4613H186.045C184.653 14.4613 183.525 13.3328 183.525 11.9407ZM186.045 86.0461C184.653 86.0461 183.525 87.1746 183.525 88.5667C183.525 89.9588 184.653 91.0873 186.045 91.0873H187.116C188.508 91.0873 189.636 89.9588 189.636 88.5667C189.636 87.1746 188.508 86.0461 187.116 86.0461H186.045ZM271.607 60.8402C270.214 60.8402 269.086 61.9687 269.086 63.3608C269.086 64.7528 270.214 65.8813 271.607 65.8813H272.677C274.069 65.8813 275.198 64.7528 275.198 63.3608C275.198 61.9687 274.069 60.8402 272.677 60.8402H271.607ZM271.607 86.0461C270.214 86.0461 269.086 87.1746 269.086 88.5667C269.086 89.9588 270.214 91.0873 271.607 91.0873H272.677C274.069 91.0873 275.198 89.9588 275.198 88.5667C275.198 87.1746 274.069 86.0461 272.677 86.0461H271.607ZM100.481 34.626C99.0893 34.626 97.9607 35.7546 97.9607 37.1466C97.9607 38.5387 99.0893 39.6672 100.481 39.6672H101.552C102.944 39.6672 104.072 38.5387 104.072 37.1466C104.072 35.7546 102.944 34.626 101.552 34.626H100.481ZM97.9607 -14.2735C97.9607 -15.6656 99.0893 -16.7941 100.481 -16.7941H101.552C102.944 -16.7941 104.072 -15.6656 104.072 -14.2735C104.072 -12.8814 102.944 -11.7529 101.552 -11.7529H100.481C99.0893 -11.7529 97.9607 -12.8814 97.9607 -14.2735ZM100.481 60.8402C99.0893 60.8402 97.9607 61.9687 97.9607 63.3608C97.9607 64.7528 99.0893 65.8813 100.481 65.8813H101.552C102.944 65.8813 104.072 64.7528 104.072 63.3608C104.072 61.9687 102.944 60.8402 101.552 60.8402H100.481ZM97.9607 11.9407C97.9607 10.5486 99.0893 9.42012 100.481 9.42012H101.552C102.944 9.42012 104.072 10.5486 104.072 11.9407C104.072 13.3328 102.944 14.4613 101.552 14.4613H100.481C99.0893 14.4613 97.9607 13.3328 97.9607 11.9407ZM100.481 86.0461C99.0893 86.0461 97.9607 87.1746 97.9607 88.5667C97.9607 89.9588 99.0893 91.0873 100.481 91.0873H101.552C102.944 91.0873 104.072 89.9588 104.072 88.5667C104.072 87.1746 102.944 86.0461 101.552 86.0461H100.481ZM228.826 34.626C227.434 34.626 226.305 35.7546 226.305 37.1466C226.305 38.5387 227.434 39.6672 228.826 39.6672H229.896C231.288 39.6672 232.417 38.5387 232.417 37.1466C232.417 35.7546 231.288 34.626 229.896 34.626H228.826ZM228.826 60.8402C227.434 60.8402 226.305 61.9687 226.305 63.3608C226.305 64.7528 227.434 65.8813 228.826 65.8813H229.896C231.288 65.8813 232.417 64.7528 232.417 63.3608C232.417 61.9687 231.288 60.8402 229.896 60.8402H228.826ZM226.305 11.9407C226.305 10.5486 227.434 9.42012 228.826 9.42012H229.896C231.288 9.42012 232.417 10.5486 232.417 11.9407C232.417 13.3328 231.288 14.4613 229.896 14.4613H228.826C227.434 14.4613 226.305 13.3328 226.305 11.9407ZM228.826 86.0461C227.434 86.0461 226.305 87.1746 226.305 88.5667C226.305 89.9588 227.434 91.0873 228.826 91.0873H229.896C231.288 91.0873 232.417 89.9588 232.417 88.5667C232.417 87.1746 231.288 86.0461 229.896 86.0461H228.826Z" fill="white" fill-opacity="0.31"/>
</svg>
